<svg viewBox="0 0 64 64" xmlns="http://www.w3.org/2000/svg">
  <!-- Słoik - korpus -->
  <path d="M8 18 L8 54 Q8 60 14 60 L50 60 Q56 60 56 54 L56 18 Z" fill="#9b59b6" fill-opacity="0.25" stroke="#9b59b6" stroke-width="2.5"/>
  
  <!-- Słoik - dekiel z kratką wentylacyjną -->
  <rect x="6" y="10" width="52" height="10" rx="3" fill="#7b42a6"/>
  <rect x="6" y="10" width="52" height="10" rx="3" fill="none" stroke="#a855f7" stroke-width="1.5"/>
  
  <!-- Kratka wentylacyjna na deklu -->
  <line x1="14" y1="11" x2="14" y2="19" stroke="#4a2070" stroke-width="2.5"/>
  <line x1="22" y1="11" x2="22" y2="19" stroke="#4a2070" stroke-width="2.5"/>
  <line x1="32" y1="11" x2="32" y2="19" stroke="#4a2070" stroke-width="2.5"/>
  <line x1="42" y1="11" x2="42" y2="19" stroke="#4a2070" stroke-width="2.5"/>
  <line x1="50" y1="11" x2="50" y2="19" stroke="#4a2070" stroke-width="2.5"/>
  
  <!-- Zakręcone łopatki wentylatora (półkoliste) -->
  <circle cx="32" cy="36" r="3.5" fill="#e879f9"/>
  <!-- Górna łopatka -->
  <path d="M30 33 Q22 28 26 22 Q30 22 32 24 Q28 30 30 33 Z" fill="#e879f9"/>
  <!-- Prawa łopatka -->
  <path d="M35 34 Q40 26 46 30 Q46 34 44 36 Q38 32 35 34 Z" fill="#e879f9"/>
  <!-- Dolna łopatka -->
  <path d="M34 39 Q42 44 38 50 Q34 50 32 48 Q36 42 34 39 Z" fill="#e879f9"/>
  <!-- Lewa łopatka -->
  <path d="M29 38 Q24 46 18 42 Q18 38 20 36 Q26 40 29 38 Z" fill="#e879f9"/>
  
  <!-- Symbole przekleństw wokół wentylatora (czerwone) -->
  <text x="14" y="32" font-family="Arial Black, sans-serif" font-size="8" font-weight="bold" fill="#ef4444">#</text>
  <text x="46" y="32" font-family="Arial Black, sans-serif" font-size="8" font-weight="bold" fill="#ef4444">@</text>
  <text x="14" y="50" font-family="Arial Black, sans-serif" font-size="8" font-weight="bold" fill="#ef4444">!</text>
  <text x="46" y="50" font-family="Arial Black, sans-serif" font-size="8" font-weight="bold" fill="#ef4444">%</text>
  
  <!-- Więcej monet na dnie -->
  <ellipse cx="16" cy="56" rx="4" ry="2" fill="#ffd700"/>
  <ellipse cx="24" cy="57" rx="4" ry="2" fill="#ffc107"/>
  <ellipse cx="32" cy="56" rx="4" ry="2" fill="#ffd700"/>
  <ellipse cx="40" cy="57" rx="4" ry="2" fill="#ffc107"/>
  <ellipse cx="48" cy="56" rx="4" ry="2" fill="#ffd700"/>
  <!-- Druga warstwa monet -->
  <ellipse cx="20" cy="54" rx="4" ry="2" fill="#ffdb4d"/>
  <ellipse cx="32" cy="53" rx="4" ry="2" fill="#ffd700"/>
  <ellipse cx="44" cy="54" rx="4" ry="2" fill="#ffdb4d"/>
</svg>